<svg width="56" height="56" viewBox="0 0 56 56" fill="none" xmlns="http://www.w3.org/2000/svg">
<g id="vuesax/outline/layer">
<g id="layer">
<path id="Vector" d="M27.5098 27.72C26.2498 27.72 24.9664 27.4867 23.9631 27.0433L10.1964 20.93C6.69644 19.3667 6.18311 17.2667 6.18311 16.1233C6.18311 14.98 6.69644 12.88 10.1964 11.3167L23.9631 5.20334C25.9931 4.29334 29.0498 4.29334 31.0798 5.20334L44.8698 11.3167C48.3464 12.8567 48.8831 14.98 48.8831 16.1233C48.8831 17.2667 48.3698 19.3667 44.8698 20.93L31.0798 27.0433C30.0531 27.51 28.7931 27.72 27.5098 27.72ZM27.5098 8.02667C26.7164 8.02667 25.9464 8.14334 25.3864 8.4L11.6198 14.5133C10.1964 15.1667 9.68311 15.82 9.68311 16.1233C9.68311 16.4267 10.1964 17.1033 11.5964 17.7333L25.3631 23.8467C26.4831 24.3367 28.5131 24.3367 29.6331 23.8467L43.4231 17.7333C44.8464 17.1033 45.3598 16.4267 45.3598 16.1233C45.3598 15.82 44.8464 15.1433 43.4231 14.5133L29.6564 8.4C29.0964 8.16667 28.3031 8.02667 27.5098 8.02667Z" fill="url(#paint0_linear_72_1993)"/>
<path id="Vector_2" d="M28 39.8767C27.1133 39.8767 26.2267 39.69 25.3867 39.3167L9.54333 32.27C7.14 31.22 5.25 28.3033 5.25 25.6667C5.25 24.71 6.04333 23.9167 7 23.9167C7.95667 23.9167 8.75 24.71 8.75 25.6667C8.75 26.95 9.8 28.56 10.9667 29.0967L26.81 36.1433C27.5567 36.47 28.42 36.47 29.19 36.1433L45.0333 29.0967C46.2 28.5833 47.25 26.95 47.25 25.6667C47.25 24.71 48.0433 23.9167 49 23.9167C49.9567 23.9167 50.75 24.71 50.75 25.6667C50.75 28.3033 48.86 31.22 46.4567 32.2933L30.6133 39.34C29.7733 39.69 28.8867 39.8767 28 39.8767Z" fill="url(#paint1_linear_72_1993)"/>
<path id="Vector_3" d="M28 51.5433C27.1133 51.5433 26.2267 51.3567 25.3867 50.9833L9.54333 43.9367C6.93 42.77 5.25 40.18 5.25 37.31C5.25 36.3533 6.04333 35.56 7 35.56C7.95667 35.56 8.75 36.3767 8.75 37.3333C8.75 38.8033 9.61333 40.1567 10.9667 40.7633L26.81 47.81C27.5567 48.1367 28.42 48.1367 29.19 47.81L45.0333 40.7633C46.3867 40.1567 47.25 38.8267 47.25 37.3333C47.25 36.3767 48.0433 35.5833 49 35.5833C49.9567 35.5833 50.75 36.3767 50.75 37.3333C50.75 40.2033 49.07 42.7933 46.4567 43.96L30.6133 51.0067C29.7733 51.3567 28.8867 51.5433 28 51.5433Z" fill="url(#paint2_linear_72_1993)"/>
</g>
</g>
<defs>
<linearGradient id="paint0_linear_72_1993" x1="27.5331" y1="4.52084" x2="34.5256" y2="29.4016" gradientUnits="userSpaceOnUse">
<stop stop-color="#C3B7F4"/>
<stop offset="0.722969" stop-color="#8D72FA"/>
<stop offset="1" stop-color="#A893FF"/>
</linearGradient>
<linearGradient id="paint1_linear_72_1993" x1="28" y1="23.9167" x2="31.2443" y2="41.7969" gradientUnits="userSpaceOnUse">
<stop stop-color="#C3B7F4"/>
<stop offset="0.722969" stop-color="#8D72FA"/>
<stop offset="1" stop-color="#A893FF"/>
</linearGradient>
<linearGradient id="paint2_linear_72_1993" x1="28" y1="35.56" x2="31.2535" y2="53.4647" gradientUnits="userSpaceOnUse">
<stop stop-color="#C3B7F4"/>
<stop offset="0.722969" stop-color="#8D72FA"/>
<stop offset="1" stop-color="#A893FF"/>
</linearGradient>
</defs>
</svg>
